<?xml version="1.0" encoding="UTF-8"?>
<svg width="144px" height="129px" viewBox="0 0 144 129" version="1.1" xmlns="http://www.w3.org/2000/svg" xmlns:xlink="http://www.w3.org/1999/xlink">
    <!-- Generator: Sketch 3.6 (26304) - http://www.bohemiancoding.com/sketch -->
    <title>Group</title>
    <desc>Created with Sketch.</desc>
    <defs></defs>
    <g id="Page-1" stroke="none" stroke-width="1" fill="none" fill-rule="evenodd">
        <g id="iPhone-6" transform="translate(-116.000000, -485.000000)">
            <g id="Group" transform="translate(116.000000, 485.000000)">
                <path d="M143.970925,129 L143.970925,13.2131593 C143.970928,11.5249732 144.051186,9.8211109 141.200804,8.91656465 C130.425179,5.49700372 102.850223,-4.82039075e-15 71.9775922,-4.82039075e-15 C41.1049614,-4.82039075e-15 13.3601824,5.30742512 2.76584573,8.91656465 C-0.0891216132,9.8211109 0.000311098823,13.2131593 0.000311098823,13.2131593 L0.000311098823,129 L143.970925,129 Z" id="Combined-Shape" fill="#FFFFFF"></path>
                <path d="M23.5541889,90 L24.7535045,90 L29.287055,101.682215 L28.2367939,101.682215 L27.0351852,98.5298711 L21.2335247,98.5298711 L20.0479679,101.682215 L19,101.682215 L23.5541889,90 Z M21.53622,97.7429159 L26.750835,97.7429159 L24.1618727,90.9022849 L24.1274755,90.9022849 L21.53622,97.7429159 Z" id="Shape" fill="#D72346"></path>
                <path d="M32,90 L33.1351075,90 L37.636554,96.5353466 L42.1311211,90 L43.2776943,90 L43.2776943,101.682215 L42.3443837,101.682215 L42.3443837,91.2347056 L37.6388472,98.0188025 L32.9356038,91.212092 L32.9356038,101.688999 L32.0022931,101.688999 L32.0022931,90 L32,90 Z" id="Shape" fill="#D72346"></path>
                <path d="M46.4884402,100.162961 C47.6012145,100.863195 48.8947845,101.232935 50.2148032,101.228064 C52.3451363,101.228064 53.3449481,100.246631 53.3449481,98.9282551 C53.3449481,95.3100701 46.1857449,97.6234471 46.1857449,93.0848863 C46.1857449,91.3504189 47.6395997,90.0003836 50.1139048,90.0003836 C51.4153193,89.9880417 52.7018853,90.2736813 53.8723718,90.8348275 L53.4825369,91.6353509 C52.4479997,91.1203034 51.304907,90.8530172 50.1460088,90.8551798 C48.2839739,90.8551798 47.1809704,91.8072147 47.1809704,93.0758408 C47.1809704,96.7302077 54.3424668,94.3444669 54.3424668,98.9350392 C54.3424668,100.719257 53.0055624,102.087383 50.2148032,102.087383 C48.4697187,102.087383 46.9126723,101.53561 46,100.918257 L46.4884402,100.162961 Z" id="Shape" fill="#D72346"></path>
                <path d="M59.4487041,90.8502735 L55,90.8502735 L55,90 L64.8605298,90 L64.8605298,90.8502735 L60.3957736,90.8502735 L60.3957736,101.682215 L59.4487041,101.682215 L59.4487041,90.8502735 L59.4487041,90.8502735 Z" id="Shape" fill="#D72346"></path>
                <path d="M67,90 L74.9044759,90 L74.9044759,90.8502735 L67.9470695,90.8502735 L67.9470695,95.3232547 L74.2279976,95.3232547 L74.2279976,96.1215167 L67.9470695,96.1215167 L67.9470695,100.831941 L75.0076674,100.831941 L75.0076674,101.686738 L67,101.686738 L67,90 L67,90 Z" id="Shape" fill="#D72346"></path>
                <path d="M78,90 L82.8156076,90 C85.6935064,90 86.7139566,91.7163765 86.7139566,93.3920484 C86.7433871,94.9839275 85.6173351,96.3700835 84.0355615,96.6891195 L86.6749731,101.679953 L85.60866,101.679953 L83.1183029,96.8089719 L78.9447763,96.8089719 L78.9447763,101.682215 L78,101.682215 L78,90 L78,90 Z M82.7720378,96.024278 C84.9413543,96.024278 85.7531282,94.6538905 85.7531282,93.4033553 C85.7531282,92.1008087 84.9574064,90.8140916 82.806435,90.8140916 L78.9447763,90.8140916 L78.9447763,96.0152326 L82.7697446,96.0152326 L82.7720378,96.024278 Z" id="Shape" fill="#D72346"></path>
                <path d="M81.4038882,49 C72.3987021,49 66.9754107,49.8118303 63.3682913,51.5960477 C62.6161393,51.9691731 61.7424505,52.3716961 61.7424505,53.4548903 L61.7424505,57.4891665 L61.7424505,57.7447009 C61.7424505,58.4078762 62.2876158,58.945486 62.9601112,58.945486 L63.0495439,58.945486 C63.8445014,58.9093042 64.6425164,58.8912132 65.4435889,58.8912132 C68.0024288,58.8913885 70.5577842,59.077323 73.0889392,59.4475092 L73.0774734,59.4475092 C73.2043729,59.4732886 73.3362474,59.4401449 73.4351549,59.3576138 C73.5340625,59.2750827 73.5890359,59.1523155 73.5842588,59.0246338 L73.5842588,56.4489384 L73.5842588,56.0916426 C73.5905635,54.8567668 74.6068143,53.8586413 75.8590601,53.8574134 L78.6108358,53.8574134 C79.8630816,53.8586413 80.8793324,54.8567668 80.8856371,56.0916426 L80.8856371,65.0036845 C77.5926788,63.5473651 68.0256718,61.0802152 57.0529659,63.0656942 C49.7355356,64.3885931 46,68.0859259 46,73.8501468 C46,89.2274331 74.5061037,85.7019641 79.9385676,83.7390987 C80.7503415,83.4473825 80.8168427,83.4202461 80.8168427,83.4202461 L80.8168427,84.3247924 L99.4394852,84.3247924 C100.29599,84.3247933 100.99068,83.6407433 100.991945,82.7961092 L100.991945,51.7136387 C98.951045,50.7570811 90.700304,49 81.4038882,49 L81.4038882,49 Z M80.8879303,78.1173438 C79.3507083,78.6097839 77.7436381,78.8571222 76.1273582,78.8500262 C73.884661,78.8500262 69.2891955,78.3299121 69.2891955,73.7551695 C69.2891955,69.1804268 73.9374033,68.6150854 76.1686349,68.6150854 C77.7096293,68.6150854 79.0442405,68.8570515 80.8787577,69.429177 L80.8787577,78.1173438 L80.8879303,78.1173438 Z" id="Shape" fill="#D72346"></path>
                <path d="M58.2084063,59.433941 C54.3811449,59.8613391 49.7604548,60.7704081 46.9054874,62.2629094 C46.749877,62.349384 46.559498,62.3482698 46.4049394,62.2599797 C46.2503808,62.1716896 46.1546855,62.0093867 46.1533354,61.8332499 L46.1533354,56.0848585 C46.147037,54.8508633 45.1321781,53.853099 43.8808273,53.8506293 L41.1290515,53.8506293 C39.8768057,53.8518572 38.860555,54.8499827 38.8542502,56.0848585 L38.8542502,82.782541 C38.8542507,83.1883651 38.6906152,83.5775348 38.3994064,83.8642836 C38.1081975,84.1510324 37.7133171,84.3118245 37.3017901,84.3112242 L20,84.3112242 L20,51.7136387 C22.0523661,50.7593425 30.3031071,49 39.5995228,49 C48.604709,49 54.0280003,49.8118303 57.6351197,51.5960477 C58.3872718,51.9691731 59.2609606,52.3716961 59.2609606,53.4548903 L59.2609606,58.2535081 C59.2538445,58.8506286 58.8075445,59.3540277 58.2084063,59.4407251" id="Shape" fill="#D72346"></path>
                <path d="M89,90 L92.210405,90 C96.2899126,90 98.456936,92.170911 98.456936,95.721255 C98.456936,99.4457242 96.4229151,101.679953 92.210405,101.679953 L89,101.679953 L89,90 L89,90 Z M92.2654406,100.854555 C95.7877135,100.854555 97.4938145,98.9029965 97.4938145,95.7144709 C97.4938145,92.6932865 95.6592973,90.8073075 92.2654406,90.8073075 L89.9470695,90.8073075 L89.9470695,100.852294 L92.2654406,100.852294 L92.2654406,100.854555 Z" id="Shape" fill="#D72346"></path>
                <path d="M104.551896,90 L105.748918,90 L110.284762,101.682215 L109.234501,101.682215 L108.042065,98.5276098 L102.233525,98.5276098 L101.050261,101.679953 L100,101.679953 L104.551896,90 Z M102.538513,97.7406545 L107.753128,97.7406545 L105.161873,90.9000235 L105.129769,90.9000235 L102.538513,97.7406545 Z" id="Shape" fill="#D72346"></path>
                <path d="M112,90.0067841 L113.146573,90.0067841 L117.643433,96.5421307 L122.147173,90 L123.279987,90 L123.279987,101.682215 L122.34897,101.682215 L122.34897,91.2347056 L117.645727,98.0188025 L112.937897,91.212092 L112.937897,101.688999 L112.020638,101.688999 L112.020638,90.0067841 L112,90.0067841 Z" id="Shape" fill="#D72346"></path>
                <path d="M106.896432,40 L123.801508,40 L123.801508,48.7130417 L106.550167,48.7130417 C105.694033,48.7130417 105,48.028627 105,47.1843586 L105,41.5309445 C105,41.1251204 105.163635,40.7359508 105.454844,40.449202 C105.746053,40.1624532 106.140933,40.001661 106.55246,40.0022614 L106.903312,40.0022614 L106.896432,40 Z" id="Shape" fill="#D72346"></path>
                <path d="M107.283974,51 L123.794628,51 L123.794628,83.9503585 L106.717567,83.9503585 L106.55246,83.9503585 C105.695955,83.9503594 105.001265,83.2663094 105,82.4216753 L105,52.5309445 C105,52.1251204 105.163635,51.7359508 105.454844,51.449202 C105.746053,51.1624532 106.140933,51.001661 106.55246,51.0022614 L107.28856,51.0022614 L107.283974,51 Z" id="Shape" fill="#D72346"></path>
            </g>
        </g>
    </g>
</svg>