<?xml version="1.0" encoding="UTF-8"?>
<svg width="97px" height="87px" viewBox="0 0 97 87" version="1.1" xmlns="http://www.w3.org/2000/svg" xmlns:xlink="http://www.w3.org/1999/xlink">
    <!-- Generator: Sketch 3.6 (26304) - http://www.bohemiancoding.com/sketch -->
    <title>Group</title>
    <desc>Created with Sketch.</desc>
    <defs></defs>
    <g id="Page-1" stroke="none" stroke-width="1" fill="none" fill-rule="evenodd">
        <g id="iPhone-6" transform="translate(-139.000000, -580.000000)">
            <g id="Group" transform="translate(139.000000, 580.000000)">
                <path d="M96.980415,86.8958333 L96.980415,8.90053094 C96.9804167,7.76334997 97.0344792,6.61560943 95.1144308,6.00629702 C87.8558497,3.70284279 69.281053,-3.24706877e-15 48.4849059,-3.24706877e-15 C27.6887587,-3.24706877e-15 8.9995673,3.57514053 1.86310442,6.00629702 C-0.0600333089,6.61560943 0.000209559624,8.90053094 0.000209559624,8.90053094 L0.000209559624,86.8958333 L96.980415,86.8958333 Z" id="Combined-Shape" fill="#FFFFFF"></path>
                <path d="M15.8663633,60.625 L16.6742357,60.625 L19.7280857,68.4942697 L19.0206181,68.4942697 L18.2112011,66.370816 L14.3031381,66.370816 L13.504534,68.4942697 L12.7986111,68.4942697 L15.8663633,60.625 Z M14.5070371,65.8407142 L18.0196597,65.8407142 L16.2757059,61.2327891 L16.2525356,61.2327891 L14.5070371,65.8407142 Z" id="Shape" fill="#D72346"></path>
                <path d="M21.5555556,60.625 L22.3201766,60.625 L25.352401,65.0272821 L28.3799913,60.625 L29.1523357,60.625 L29.1523357,68.4942697 L28.5236473,68.4942697 L28.5236473,61.4567114 L25.3539456,66.0265545 L22.1857886,61.4414786 L22.1857886,68.4988395 L21.5571002,68.4988395 L21.5571002,60.625 L21.5555556,60.625 Z" id="Shape" fill="#D72346"></path>
                <path d="M31.3151299,67.4708832 C32.064707,67.942569 32.9360701,68.1916299 33.8252494,68.1883486 C35.2602654,68.1883486 35.9337498,67.5272446 35.9337498,66.6391718 C35.9337498,64.2019222 31.1112309,65.7602387 31.1112309,62.7030137 C31.1112309,61.5346571 32.0905637,60.6252584 33.7572831,60.6252584 C34.6339304,60.6169448 35.5005755,60.8093548 36.2890282,61.1873491 L36.0264311,61.7265906 C35.3295554,61.3796488 34.5595554,61.1996018 33.7789087,61.2010586 C32.5246213,61.2010586 31.7816259,61.8423599 31.7816259,62.6969206 C31.7816259,65.1585427 36.6056895,63.5514812 36.6056895,66.6437417 C36.6056895,67.8456104 35.7051358,68.7671954 33.8252494,68.7671954 C32.6497411,68.7671954 31.6008973,68.3955148 30.9861111,67.9796591 L31.3151299,67.4708832 Z" id="Shape" fill="#D72346"></path>
                <path d="M40.0453076,61.1977537 L37.0486111,61.1977537 L37.0486111,60.625 L43.6907735,60.625 L43.6907735,61.1977537 L40.6832642,61.1977537 L40.6832642,68.4942697 L40.0453076,68.4942697 L40.0453076,61.1977537 L40.0453076,61.1977537 Z" id="Shape" fill="#D72346"></path>
                <path d="M45.1319444,60.625 L50.4564872,60.625 L50.4564872,61.1977537 L45.769901,61.1977537 L45.769901,64.2108035 L50.000804,64.2108035 L50.000804,64.7485217 L45.769901,64.7485217 L45.769901,67.921516 L50.5259982,67.921516 L50.5259982,68.4973163 L45.1319444,68.4973163 L45.1319444,60.625 L45.1319444,60.625 Z" id="Shape" fill="#D72346"></path>
                <path d="M52.5416667,60.625 L55.7855134,60.625 C57.724098,60.625 58.4114846,61.7811703 58.4114846,62.9099215 C58.4313093,63.982229 57.6727882,64.915959 56.6072879,65.1308652 L58.3852249,68.4927464 L57.6669446,68.4927464 L55.9894124,65.2115991 L53.1780785,65.2115991 L53.1780785,68.4942697 L52.5416667,68.4942697 L52.5416667,60.625 L52.5416667,60.625 Z M55.7561643,64.6830206 C57.2174401,64.6830206 57.76426,63.7599123 57.76426,62.9175379 C57.76426,62.0401281 57.2282529,61.1733812 55.7793347,61.1733812 L53.1780785,61.1733812 L53.1780785,64.6769275 L55.7546197,64.6769275 L55.7561643,64.6830206 Z" id="Shape" fill="#D72346"></path>
                <path d="M54.8345636,33.0069444 C48.7685701,33.0069444 45.1153808,33.5538023 42.6855851,34.755671 C42.1789271,35.0070124 41.5904007,35.2781564 41.5904007,36.007808 L41.5904007,38.7253414 L41.5904007,38.8974721 C41.5904007,39.3441944 41.9576301,39.7063343 42.4106305,39.7063343 L42.4708734,39.7063343 C43.0063655,39.6819618 43.5439173,39.6697756 44.0835286,39.6697756 C45.8071916,39.6698937 47.5285074,39.7951412 49.2335215,40.0445027 L49.2257981,40.0445027 C49.311279,40.061868 49.4001111,40.039542 49.4667363,39.9839482 C49.5333615,39.9283543 49.5703923,39.8456569 49.5671743,39.7596492 L49.5671743,38.0246321 L49.5671743,37.7839537 C49.5714213,36.9521276 50.2559791,36.2797792 51.0995057,36.2789521 L52.9531325,36.2789521 C53.7966591,36.2797792 54.4812169,36.9521276 54.4854639,37.7839537 L54.4854639,43.7872042 C52.2672906,42.8062112 45.8228483,41.1443116 38.4315118,42.4817523 C33.5024094,43.3728717 30.9861111,45.8634362 30.9861111,49.7462795 C30.9861111,60.1045903 50.1881393,57.7297952 53.8475074,56.4075873 C54.3943273,56.2110841 54.4391232,56.1928047 54.4391232,56.1928047 L54.4391232,56.8021171 L66.9835421,56.8021171 C67.5604936,56.8021177 68.0284443,56.341334 68.0292965,55.7723791 L68.0292965,34.8348817 C66.6545233,34.1905338 61.0967325,33.0069444 54.8345636,33.0069444 L54.8345636,33.0069444 Z M54.4870086,52.6207107 C53.4515188,52.9524238 52.3689785,53.1190337 51.2802344,53.1142538 C49.7695286,53.1142538 46.6739719,52.7638991 46.6739719,49.6823017 C46.6739719,46.6007042 49.8050564,46.2198839 51.3080388,46.2198839 C52.3460697,46.2198839 53.2450787,46.382875 54.4808298,46.7682651 L54.4808298,52.6207107 L54.4870086,52.6207107 Z" id="Shape" fill="#D72346"></path>
                <path d="M39.2098293,40.035363 C36.6317434,40.3232631 33.5191952,40.9356221 31.5960575,41.9409876 C31.4912366,41.9992379 31.3629952,41.9984873 31.2588828,41.9390141 C31.1547704,41.8795409 31.0903089,41.7702119 31.0893995,41.6515642 L31.0893995,37.7793838 C31.0851569,36.948151 30.4015367,36.2760459 29.5586128,36.2743822 L27.7049861,36.2743822 C26.8614594,36.2752094 26.1769016,36.9475578 26.1726547,37.7793838 L26.1726547,55.7632394 C26.172655,56.0366071 26.0624283,56.2987561 25.8662668,56.4919132 C25.6701053,56.6850704 25.4041094,56.7933818 25.1269002,56.7929774 L13.4722222,56.7929774 L13.4722222,34.8348817 C14.8547188,34.1920571 20.4125096,33.0069444 26.6746786,33.0069444 C32.740672,33.0069444 36.3938613,33.5538023 38.823657,34.755671 C39.330315,35.0070124 39.9188415,35.2781564 39.9188415,36.007808 L39.9188415,39.2402103 C39.9140481,39.6424373 39.6134154,39.9815326 39.2098293,40.0399329" id="Shape" fill="#D72346"></path>
                <path d="M59.9513889,60.625 L62.1139534,60.625 C64.861955,60.625 66.3216861,62.0873498 66.3216861,64.478901 C66.3216861,66.9877448 64.951547,68.4927464 62.1139534,68.4927464 L59.9513889,68.4927464 L59.9513889,60.625 L59.9513889,60.625 Z M62.1510259,67.9367488 C64.5236681,67.9367488 65.6729167,66.6221573 65.6729167,64.4743311 C65.6729167,62.4392277 64.4371656,61.1688113 62.1510259,61.1688113 L60.5893454,61.1688113 L60.5893454,67.9352256 L62.1510259,67.9352256 L62.1510259,67.9367488 Z" id="Shape" fill="#D72346"></path>
                <path d="M70.4273186,60.625 L71.2336463,60.625 L74.289041,68.4942697 L73.5815735,68.4942697 L72.7783352,66.3692927 L68.8656381,66.3692927 L68.0685786,68.4927464 L67.3611111,68.4927464 L70.4273186,60.625 Z M69.0710818,65.8391909 L72.5837044,65.8391909 L70.8382059,61.2312658 L70.8165803,61.2312658 L69.0710818,65.8391909 Z" id="Shape" fill="#D72346"></path>
                <path d="M75.4444444,60.6295698 L76.2167889,60.6295698 L79.2459239,65.031852 L82.279693,60.625 L83.0427693,60.625 L83.0427693,68.4942697 L82.4156256,68.4942697 L82.4156256,61.4567114 L79.2474686,66.0265545 L76.0762222,61.4414786 L76.0762222,68.4988395 L75.4583466,68.4988395 L75.4583466,60.6295698 L75.4444444,60.6295698 Z" id="Shape" fill="#D72346"></path>
                <path d="M72.0066244,26.9444444 L83.3940713,26.9444444 L83.3940713,32.8136462 L71.7733764,32.8136462 C71.1966753,32.8136462 70.7291667,32.3526168 70.7291667,31.7839082 L70.7291667,27.9757057 C70.7291664,27.7023381 70.839393,27.4401891 71.0355545,27.2470319 C71.2317161,27.0538747 71.4977119,26.9455633 71.7749211,26.9459677 L72.0112585,26.9459677 L72.0066244,26.9444444 Z" id="Shape" fill="#D72346"></path>
                <path d="M72.2676768,34.3541667 L83.3894372,34.3541667 L83.3894372,56.5498943 L71.8861387,56.5498943 L71.7749211,56.5498943 C71.1979696,56.5498949 70.7300189,56.0891112 70.7291667,55.5201563 L70.7291667,35.3854279 C70.7291664,35.1120603 70.839393,34.8499113 71.0355545,34.6567541 C71.2317161,34.4635969 71.4977119,34.3552856 71.7749211,34.3556899 L72.2707662,34.3556899 L72.2676768,34.3541667 Z" id="Shape" fill="#D72346"></path>
            </g>
        </g>
    </g>
</svg>