<?xml version="1.0" encoding="UTF-8"?>
<svg width="97px" height="84px" viewBox="0 0 97 84" version="1.1" xmlns="http://www.w3.org/2000/svg" xmlns:xlink="http://www.w3.org/1999/xlink">
    <!-- Generator: Sketch 3.6 (26304) - http://www.bohemiancoding.com/sketch -->
    <title>Group 3</title>
    <desc>Created with Sketch.</desc>
    <defs></defs>
    <g id="Page-1" stroke="none" stroke-width="1" fill="none" fill-rule="evenodd">
        <g id="iPhone-6" transform="translate(-139.000000, -981.000000)">
            <g id="Group-3" transform="translate(139.000000, 981.000000)">
                <path d="M96.272709,86.2617188 L96.272709,8.83558011 C96.2727106,7.70669762 96.3263785,6.56733261 94.4203416,5.96246661 C87.2147293,3.67582162 68.7754806,-3.22337357e-15 48.1310915,-3.22337357e-15 C27.4867023,-3.22337357e-15 8.9338936,3.54905126 1.84950842,5.96246661 C-0.0595953804,6.56733261 0.000207871196,8.83558011 0.000207871196,8.83558011 L0.000207871196,86.2617188 L96.272709,86.2617188 Z" id="Combined-Shape" fill="#D72346"></path>
                <path d="M15.0453656,60 L15.8473425,60 L18.8789073,67.8118444 L18.1766025,67.8118444 L17.3730921,65.7038864 L13.4935479,65.7038864 L12.7007714,67.8118444 L12,67.8118444 L15.0453656,60 Z M13.6959589,65.177653 L17.1829485,65.177653 L15.451721,60.6033538 L15.4287198,60.6033538 L13.6959589,65.177653 Z" id="Shape" fill="#FFFFFF"></path>
                <path d="M21,60 L21.7590413,60 L24.7691383,64.3701569 L27.774635,60 L28.5413434,60 L28.5413434,67.8118444 L27.9172428,67.8118444 L27.9172428,60.8256421 L24.7706717,65.3621371 L21.625634,60.8105204 L21.625634,67.8163809 L21.0015334,67.8163809 L21.0015334,60 L21,60 Z" id="Shape" fill="#FFFFFF"></path>
                <path d="M30.3266178,66.795926 C31.0707249,67.2641696 31.9357293,67.5114131 32.8184199,67.5081557 C34.242964,67.5081557 34.9115337,66.8518761 34.9115337,65.9702839 C34.9115337,63.5508199 30.1242068,65.0977647 30.1242068,62.0628496 C30.1242068,60.903019 31.0963929,60.0002565 32.7509496,60.0002565 C33.6211996,59.9920035 34.4815205,60.1830095 35.2642196,60.5582454 L35.0035387,61.0935518 C34.3117483,60.7491418 33.5473674,60.5704087 32.7724174,60.5718549 C31.527283,60.5718549 30.7897096,61.2084763 30.7897096,62.0568009 C30.7897096,64.5004595 35.57857,62.9051255 35.57857,65.9748204 C35.57857,67.1679186 34.684588,68.0827784 32.8184199,68.0827784 C31.6514898,68.0827784 30.6102998,67.7138102 30,67.3009891 L30.3266178,66.795926 Z" id="Shape" fill="#FFFFFF"></path>
                <path d="M38.9748284,60.568574 L36,60.568574 L36,60 L42.5936918,60 L42.5936918,60.568574 L39.6081295,60.568574 L39.6081295,67.8118444 L38.9748284,67.8118444 L38.9748284,60.568574 L38.9748284,60.568574 Z" id="Shape" fill="#FFFFFF"></path>
                <path d="M44,60 L49.2856874,60 L49.2856874,60.568574 L44.6333011,60.568574 L44.6333011,63.5596364 L48.8333295,63.5596364 L48.8333295,64.0934307 L44.6333011,64.0934307 L44.6333011,67.2432704 L49.3546911,67.2432704 L49.3546911,67.8148687 L44,67.8148687 L44,60 L44,60 Z" id="Shape" fill="#FFFFFF"></path>
                <path d="M52,60 L55.2201751,60 C57.1446131,60 57.8269835,61.1477332 57.8269835,62.2682475 C57.8466635,63.3327299 57.0936777,64.2596461 56.0359528,64.4729841 L57.8009154,67.8103322 L57.0878766,67.8103322 L55.4225861,64.5531288 L52.6317677,64.5531288 L52.6317677,67.8118444 L52,67.8118444 L52,60 L52,60 Z M55.1910402,64.0284076 C56.6416524,64.0284076 57.1844819,63.1120356 57.1844819,62.2758083 C57.1844819,61.4048013 56.6523863,60.5443794 55.2140414,60.5443794 L52.6317677,60.5443794 L52.6317677,64.0223589 L55.1895067,64.0223589 L55.1910402,64.0284076 Z" id="Shape" fill="#FFFFFF"></path>
                <path d="M53.6744205,33 C47.6526931,33 44.0261626,33.5428672 41.6140981,34.7359654 C41.1111375,34.9854726 40.5269057,35.254638 40.5269057,35.9789651 L40.5269057,38.6766674 L40.5269057,38.8475421 C40.5269057,39.2910044 40.8914553,39.6505017 41.34115,39.6505017 L41.4009532,39.6505017 C41.9325377,39.626307 42.4661667,39.6142097 43.0018403,39.6142097 C44.712925,39.6143269 46.4216797,39.7386605 48.1142516,39.9862023 L48.1065845,39.9862023 C48.1914416,40.0034409 48.2796255,39.9812778 48.3457645,39.9260897 C48.4119035,39.8709015 48.448664,39.7888076 48.4454696,39.7034275 L48.4454696,37.9810715 L48.4454696,37.7421494 C48.4496855,36.9163936 49.1292478,36.2489515 49.9666189,36.2481304 L51.806719,36.2481304 C52.6440901,36.2489515 53.3236524,36.9163936 53.3278684,37.7421494 L53.3278684,43.7015917 C51.125882,42.7277575 44.7284675,41.0779854 37.3910685,42.4056663 C32.4979358,43.2902828 30,45.7626726 30,49.6171812 C30,59.8999032 49.0619031,57.542438 52.6945673,56.2298788 C53.2373968,56.0348095 53.2818659,56.0166635 53.2818659,56.0166635 L53.2818659,56.6215295 L65.7347429,56.6215295 C66.3074842,56.6215301 66.77202,56.164109 66.772866,55.599306 L66.772866,34.814598 C65.4081252,34.1749522 59.8908919,33 53.6744205,33 L53.6744205,33 Z M53.3294018,52.4706366 C52.3014684,52.799929 51.2268278,52.9653231 50.1460287,52.960578 C48.6463472,52.960578 45.5733801,52.6127801 45.5733801,49.5536703 C45.5733801,46.4945605 48.6816157,46.1165192 50.1736302,46.1165192 C51.2040862,46.1165192 52.0965347,46.2783209 53.3232681,46.6608986 L53.3232681,52.4706366 L53.3294018,52.4706366 Z" id="Shape" fill="#FFFFFF"></path>
                <path d="M38.5497892,39.9771293 C35.9905167,40.2629285 32.900682,40.8708188 30.9915782,41.8688477 C30.8875222,41.926673 30.7602166,41.9259278 30.656864,41.8668887 C30.5535114,41.8078495 30.4895203,41.6993183 30.4886175,41.5815364 L30.4886175,37.737613 C30.4844058,36.9124459 29.8057743,36.2452455 28.9690016,36.2435939 L27.1289015,36.2435939 C26.2915304,36.2444151 25.6119681,36.9118571 25.6077522,37.737613 L25.6077522,55.590233 C25.6077525,55.8616057 25.4983302,56.1218417 25.3036001,56.3135893 C25.1088701,56.505337 24.8448153,56.612858 24.5696291,56.6124565 L13,56.6124565 L13,34.814598 C14.372408,34.1764644 19.8896413,33 26.1061126,33 C32.12784,33 35.7543705,33.5428672 38.166435,34.7359654 C38.6693957,34.9854726 39.2536274,35.254638 39.2536274,35.9789651 L39.2536274,39.1877792 C39.248869,39.5870709 38.9504302,39.9236917 38.5497892,39.9816658" id="Shape" fill="#FFFFFF"></path>
                <path d="M59,60 L61.1467834,60 C63.8747317,60 65.3238105,61.4516784 65.3238105,63.8257775 C65.3238105,66.3163132 63.9636699,67.8103322 61.1467834,67.8103322 L59,67.8103322 L59,60 L59,60 Z M61.1835854,67.258392 C63.5389135,67.258392 64.6797755,65.9533936 64.6797755,63.821241 C64.6797755,61.8009885 63.4530421,60.5398429 61.1835854,60.5398429 L59.6333011,60.5398429 L59.6333011,67.2568798 L61.1835854,67.2568798 L61.1835854,67.258392 Z" id="Shape" fill="#FFFFFF"></path>
                <path d="M69.0438322,60 L69.8442757,60 L72.8773739,67.8118444 L72.1750691,67.8118444 L71.3776924,65.7023742 L67.4935479,65.7023742 L66.7023049,67.8103322 L66,67.8103322 L69.0438322,60 Z M67.6974923,65.1761408 L71.1844819,65.1761408 L69.451721,60.6018417 L69.4302532,60.6018417 L67.6974923,65.1761408 Z" id="Shape" fill="#FFFFFF"></path>
                <path d="M74,60.0045365 L74.7667084,60.0045365 L77.7737385,64.3746934 L80.7853689,60 L81.5428768,60 L81.5428768,67.8118444 L80.9203096,67.8118444 L80.9203096,60.8256421 L77.7752719,65.3621371 L74.6271674,60.8105204 L74.6271674,67.8163809 L74.0138008,67.8163809 L74.0138008,60.0045365 L74,60.0045365 Z" id="Shape" fill="#FFFFFF"></path>
                <path d="M71.2681356,27 L82.5724836,27 L82.5724836,32.8263718 L71.0365897,32.8263718 C70.464097,32.8263718 70,32.3687067 70,31.8041482 L70,28.0237357 C69.9999997,27.752363 70.109422,27.492127 70.304152,27.3003794 C70.4988821,27.1086317 70.7629368,27.0011107 71.0381231,27.0015122 L71.2727359,27.0015122 L71.2681356,27 Z" id="Shape" fill="#FFFFFF"></path>
                <path d="M71.527283,34 L82.5678833,34 L82.5678833,56.0337563 L71.1485291,56.0337563 L71.0381231,56.0337563 C70.4653819,56.0337569 70.000846,55.5763357 70,55.0115327 L70,35.0237357 C69.9999997,34.752363 70.109422,34.492127 70.304152,34.3003794 C70.4988821,34.1086317 70.7629368,34.0011107 71.0381231,34.0015122 L71.5303499,34.0015122 L71.527283,34 Z" id="Shape" fill="#FFFFFF"></path>
            </g>
        </g>
    </g>
</svg>